<?xml version="1.0" encoding="utf-8"?>
<svg xmlns="http://www.w3.org/2000/svg" viewBox="0 0 30 30" fill="#ffffff"><path d="M27,6H8.552C7.563,6,6.639,6.486,6.08,7.301l-4.904,7.133c-0.234,0.341-0.234,0.792,0,1.133l4.904,7.133 C6.639,23.514,7.563,24,8.552,24H27c1.103,0,2-0.897,2-2V8C29,6.897,28.103,6,27,6z M21.707,18.293c0.391,0.391,0.391,1.023,0,1.414 C21.512,19.902,21.256,20,21,20s-0.512-0.098-0.707-0.293L17,16.414l-3.293,3.293C13.512,19.902,13.256,20,13,20 s-0.512-0.098-0.707-0.293c-0.391-0.391-0.391-1.023,0-1.414L15.586,15l-3.293-3.293c-0.391-0.391-0.391-1.023,0-1.414 s1.023-0.391,1.414,0L17,13.586l3.293-3.293c0.391-0.391,1.023-0.391,1.414,0s0.391,1.023,0,1.414L18.414,15L21.707,18.293z" fill="#ffffff"/></svg>
